<?xml version="1.0" encoding="UTF-8"?>
<!DOCTYPE svg PUBLIC "-//W3C//DTD SVG 1.1//EN" "http://www.w3.org/Graphics/SVG/1.1/DTD/svg11.dtd">
<svg xmlns="http://www.w3.org/2000/svg" version="1.1" width="500px" height="500px" style="shape-rendering:geometricPrecision; text-rendering:geometricPrecision; image-rendering:optimizeQuality; fill-rule:evenodd; clip-rule:evenodd" xmlns:xlink="http://www.w3.org/1999/xlink">
<g><path style="opacity:1" fill="#02b2af" d="M -0.5,-0.5 C 166.167,-0.5 332.833,-0.5 499.5,-0.5C 499.5,166.167 499.5,332.833 499.5,499.5C 332.833,499.5 166.167,499.5 -0.5,499.5C -0.5,332.833 -0.5,166.167 -0.5,-0.5 Z"/></g>
<g><path style="opacity:1" fill="#b0e6e5" d="M 270.5,171.5 C 272.262,171.357 273.929,171.691 275.5,172.5C 278.157,178.948 276.324,181.282 270,179.5C 267.893,176.629 268.059,173.963 270.5,171.5 Z"/></g>
<g><path style="opacity:1" fill="#2bb9b6" d="M 271.5,172.5 C 274.966,173.109 275.966,174.942 274.5,178C 273.207,178.49 271.873,178.657 270.5,178.5C 270.325,176.379 270.659,174.379 271.5,172.5 Z"/></g>
<g><path style="opacity:1" fill="#b1e7e6" d="M 291.5,172.5 C 292.922,172.709 294.255,173.209 295.5,174C 294.552,174.483 293.552,174.649 292.5,174.5C 292.5,175.5 292.5,176.5 292.5,177.5C 293.552,177.351 294.552,177.517 295.5,178C 290.372,179.105 290.372,180.438 295.5,182C 292.962,182.867 290.962,182.201 289.5,180C 290.479,177.567 291.145,175.067 291.5,172.5 Z"/></g>
<g><path style="opacity:1" fill="#b1e7e5" d="M 264.5,173.5 C 267.144,175.516 267.977,178.183 267,181.5C 265.659,178.978 264.826,176.311 264.5,173.5 Z"/></g>
<g><path style="opacity:1" fill="#afe6e5" d="M 282.5,172.5 C 284.693,171.203 287.027,171.203 289.5,172.5C 286.407,174.212 284.741,176.879 284.5,180.5C 283.888,179.005 283.888,177.338 284.5,175.5C 284.36,173.97 283.693,172.97 282.5,172.5 Z"/></g>
<g><path style="opacity:1" fill="#aee6e5" d="M 300.5,175.5 C 301.289,175.783 301.956,176.283 302.5,177C 301.409,179.064 301.242,181.231 302,183.5C 303.378,181.787 305.045,180.453 307,179.5C 307.692,180.025 308.192,180.692 308.5,181.5C 307,183.833 305.5,186.167 304,188.5C 303.805,186.793 303.805,185.126 304,183.5C 302.89,185.037 301.39,185.703 299.5,185.5C 301.086,178.063 300.252,177.73 297,184.5C 296.833,184 296.667,183.5 296.5,183C 297.644,180.367 298.977,177.867 300.5,175.5 Z"/></g>
<g><path style="opacity:1" fill="#ace5e4" d="M 256.5,175.5 C 257.376,175.369 258.043,175.702 258.5,176.5C 259.123,178.711 260.123,180.711 261.5,182.5C 262.768,181.572 264.101,181.405 265.5,182C 263.833,182.833 262.167,183.667 260.5,184.5C 258.781,181.677 257.447,178.677 256.5,175.5 Z"/></g>
<g><path style="opacity:1" fill="#a9e4e3" d="M 250.5,179.5 C 257.486,179.331 259.153,182.164 255.5,188C 251.579,188.765 249.245,187.098 248.5,183C 248.978,181.697 249.645,180.531 250.5,179.5 Z"/></g>
<g><path style="opacity:1" fill="#24b8b5" d="M 251.5,180.5 C 255.068,180.759 256.401,182.759 255.5,186.5C 251.262,186.28 249.928,184.28 251.5,180.5 Z"/></g>
<g><path style="opacity:1" fill="#b0e6e5" d="M 310.5,183.5 C 313.323,184.148 314.823,185.814 315,188.5C 312.88,191.08 310.713,191.08 308.5,188.5C 307.833,189.167 307.167,189.833 306.5,190.5C 305.479,189.998 305.312,189.332 306,188.5C 307.707,186.963 309.207,185.296 310.5,183.5 Z"/></g>
<g><path style="opacity:1" fill="#2bbab7" d="M 310.5,185.5 C 311.995,185.415 312.995,186.081 313.5,187.5C 310.623,188.911 309.623,188.244 310.5,185.5 Z"/></g>
<g><path style="opacity:1" fill="#a9e4e3" d="M 244.5,184.5 C 245.239,184.369 245.906,184.536 246.5,185C 244.063,186.279 243.563,187.779 245,189.5C 248.476,186.814 248.976,187.147 246.5,190.5C 247.167,191.5 247.833,192.5 248.5,193.5C 248.167,193.833 247.833,194.167 247.5,194.5C 245.167,192.833 243.167,190.833 241.5,188.5C 242.524,187.148 243.524,185.815 244.5,184.5 Z"/></g>
<g><path style="opacity:1" fill="#ade6e5" d="M 316.5,189.5 C 317.376,189.369 318.043,189.702 318.5,190.5C 317.135,191.941 315.635,193.274 314,194.5C 314,195.833 314,197.167 314,198.5C 312.833,197.333 311.667,196.167 310.5,195C 312.763,193.383 314.763,191.55 316.5,189.5 Z"/></g>
<g><path style="opacity:1" fill="#a9e4e3" d="M 238.5,190.5 C 239.239,190.369 239.906,190.536 240.5,191C 239.549,191.718 239.383,192.551 240,193.5C 247.427,198.906 247.094,199.572 239,195.5C 237.838,196.187 236.672,196.353 235.5,196C 236.758,194.259 237.758,192.426 238.5,190.5 Z"/></g>
<g><path style="opacity:1" fill="#aae4e3" d="M 319.5,198.5 C 321.167,198.5 322.833,198.5 324.5,198.5C 323.633,202.53 321.3,205.03 317.5,206C 318.38,204.644 318.714,203.144 318.5,201.5C 316.897,201.688 315.563,201.188 314.5,200C 316.382,199.802 318.048,199.302 319.5,198.5 Z"/></g>
<g><path style="opacity:1" fill="#b2e7e6" d="M 233.5,199.5 C 236.555,200.036 239.555,200.869 242.5,202C 240.941,202.98 239.274,203.813 237.5,204.5C 238.5,205.167 239.5,205.833 240.5,206.5C 240,206.833 239.5,207.167 239,207.5C 236.44,206.47 233.94,205.303 231.5,204C 232.267,202.53 232.933,201.03 233.5,199.5 Z"/></g>
<g><path style="opacity:1" fill="#3ebfbd" d="M 234.5,200.5 C 235.586,200.62 236.253,201.287 236.5,202.5C 235.696,204.957 234.696,204.957 233.5,202.5C 233.863,201.817 234.196,201.15 234.5,200.5 Z"/></g>
<g><path style="opacity:1" fill="#fbfdfd" d="M 280.5,281.5 C 281.052,287.969 282.052,287.969 283.5,281.5C 283.739,273.258 283.073,265.092 281.5,257C 281.354,254.966 282.02,253.299 283.5,252C 287.5,251.667 291.5,251.333 295.5,251C 297.784,245.391 301.451,241.058 306.5,238C 317.025,235.696 323.025,239.863 324.5,250.5C 327.244,250.8 328.911,249.633 329.5,247C 330.103,232.852 333.937,219.685 341,207.5C 350.376,200.392 355.542,202.726 356.5,214.5C 354.875,229.746 349.375,243.413 340,255.5C 338.461,259.74 339.794,262.407 344,263.5C 347.155,262.59 349.822,260.924 352,258.5C 352.709,252.038 354.043,245.705 356,239.5C 358.135,237.722 360.635,237.055 363.5,237.5C 363.215,244.427 362.215,251.26 360.5,258C 360.6,260.37 361.6,262.203 363.5,263.5C 365.422,262.289 367.255,260.956 369,259.5C 367.932,250.006 371.432,242.839 379.5,238C 390.04,235.714 396.04,239.881 397.5,250.5C 400.203,250.045 402.87,249.378 405.5,248.5C 407.739,248.574 408.739,249.741 408.5,252C 408.646,254.188 407.646,255.521 405.5,256C 402.522,256.696 399.522,257.196 396.5,257.5C 394.285,267.876 387.952,272.043 377.5,270C 375.359,268.692 373.359,267.192 371.5,265.5C 367.65,269.594 362.983,271.094 357.5,270C 355.697,269.363 354.364,268.197 353.5,266.5C 340.629,274.618 332.962,271.284 330.5,256.5C 324.837,256.167 321.67,258.833 321,264.5C 313.259,272.44 305.593,272.44 298,264.5C 297.187,262.564 296.687,260.564 296.5,258.5C 293.5,258.5 290.5,258.5 287.5,258.5C 287.927,262.824 288.261,267.158 288.5,271.5C 288.5,276.167 288.5,280.833 288.5,285.5C 287.016,289.485 284.183,291.818 280,292.5C 275.784,292.114 273.284,289.781 272.5,285.5C 272.567,284.041 272.234,282.708 271.5,281.5C 271.248,276.481 270.748,271.481 270,266.5C 264.463,271.799 258.963,271.799 253.5,266.5C 249.065,270.014 244.065,271.181 238.5,270C 237.667,269.167 236.833,268.333 236,267.5C 235.899,261.116 235.732,254.782 235.5,248.5C 234.522,248.977 233.689,249.643 233,250.5C 229.763,256.897 226.929,263.397 224.5,270C 220.859,271.315 218.526,270.149 217.5,266.5C 211.643,271.69 205.976,271.69 200.5,266.5C 196.065,270.014 191.065,271.181 185.5,270C 184.667,269.167 183.833,268.333 183,267.5C 182.899,261.116 182.732,254.782 182.5,248.5C 181.522,248.977 180.689,249.643 180,250.5C 176.763,256.897 173.929,263.397 171.5,270C 168.472,271.14 166.305,270.306 165,267.5C 164.751,261.091 164.584,254.758 164.5,248.5C 161.939,250.607 160.106,253.274 159,256.5C 157.539,261.21 155.705,265.71 153.5,270C 150.128,271.122 148.128,269.955 147.5,266.5C 147.423,265.25 146.756,264.417 145.5,264C 146.598,261.885 146.598,259.718 145.5,257.5C 146.05,251.301 147.55,245.301 150,239.5C 152.135,237.722 154.635,237.055 157.5,237.5C 156.342,242.119 155.842,246.785 156,251.5C 158.097,245.443 161.93,240.943 167.5,238C 169.769,237.242 171.936,237.409 174,238.5C 174.245,242.853 174.245,247.187 174,251.5C 176.047,246.457 179.213,242.29 183.5,239C 186.03,237.578 188.697,237.245 191.5,238C 192.894,238.956 193.561,240.289 193.5,242C 192.044,248.778 191.044,255.612 190.5,262.5C 194.273,263.178 197.106,261.844 199,258.5C 199.709,252.038 201.043,245.705 203,239.5C 205.135,237.722 207.635,237.055 210.5,237.5C 210.215,244.427 209.215,251.26 207.5,258C 207.6,260.37 208.6,262.203 210.5,263.5C 213.415,262.296 215.581,260.296 217,257.5C 217.055,251.271 218.222,245.271 220.5,239.5C 222.851,237.771 225.518,237.104 228.5,237.5C 227.076,242.781 226.242,248.114 226,253.5C 227.871,248.919 230.371,244.752 233.5,241C 235.806,239.014 238.472,237.847 241.5,237.5C 243.374,237.39 244.874,238.056 246,239.5C 245.34,247.157 244.506,254.824 243.5,262.5C 247.273,263.178 250.106,261.844 252,258.5C 252.953,251.385 254.787,244.551 257.5,238C 259.5,237.333 261.5,237.333 263.5,238C 264.022,238.561 264.355,239.228 264.5,240C 262.097,247.34 261.264,254.84 262,262.5C 262.414,262.957 262.914,263.291 263.5,263.5C 266.094,262.408 268.261,260.741 270,258.5C 270.931,247.354 272.931,236.354 276,225.5C 277.61,220.669 279.61,216.003 282,211.5C 285.253,204.45 290.42,202.283 297.5,205C 299.946,211.696 300.113,218.529 298,225.5C 293.937,235.229 287.937,243.562 280,250.5C 279.192,260.91 279.359,271.243 280.5,281.5 Z"/></g>
<g><path style="opacity:1" fill="#a5e3e2" d="M 231.5,207.5 C 238.494,207.415 240.161,210.248 236.5,216C 229.409,216.396 227.742,213.562 231.5,207.5 Z"/></g>
<g><path style="opacity:1" fill="#1cb6b3" d="M 231.5,209.5 C 235.5,208.833 237.167,210.5 236.5,214.5C 232.5,215.167 230.833,213.5 231.5,209.5 Z"/></g>
<g><path style="opacity:1" fill="#27b8b5" d="M 290.5,210.5 C 292.95,210.874 293.95,212.374 293.5,215C 292.5,224.829 288.667,233.329 282,240.5C 282.658,229.868 285.491,219.868 290.5,210.5 Z"/></g>
<g><path style="opacity:1" fill="#afe6e5" d="M 325.5,205.5 C 327.982,207.102 328.815,209.435 328,212.5C 327.481,211.484 326.647,210.818 325.5,210.5C 323.527,211.331 321.527,211.498 319.5,211C 321.731,209.853 324.065,208.853 326.5,208C 325.748,207.329 325.414,206.496 325.5,205.5 Z"/></g>
<g><path style="opacity:1" fill="#26b7b4" d="M 346.5,210.5 C 347.496,210.414 348.329,210.748 349,211.5C 349.361,224.432 346.028,236.432 339,247.5C 338.374,234.46 340.874,222.127 346.5,210.5 Z"/></g>
<g><path style="opacity:1" fill="#b6e8e7" d="M 320.5,215.5 C 323.5,215.5 326.5,215.5 329.5,215.5C 329.662,217.527 329.495,219.527 329,221.5C 328.51,220.207 328.343,218.873 328.5,217.5C 327.5,217.5 326.5,217.5 325.5,217.5C 325.167,222.833 324.833,222.833 324.5,217.5C 323.5,217.5 322.5,217.5 321.5,217.5C 321.657,218.873 321.49,220.207 321,221.5C 320.505,219.527 320.338,217.527 320.5,215.5 Z"/></g>
<g><path style="opacity:1" fill="#b1e7e6" d="M 230.5,217.5 C 233.297,217.967 234.631,219.633 234.5,222.5C 235.675,222.281 236.675,222.614 237.5,223.5C 234.572,224.484 231.572,224.817 228.5,224.5C 228.185,221.789 228.852,219.456 230.5,217.5 Z"/></g>
<g><path style="opacity:1" fill="#37bebb" d="M 230.5,219.5 C 231.995,219.415 232.995,220.081 233.5,221.5C 232.167,222.833 230.833,222.833 229.5,221.5C 229.863,220.817 230.196,220.15 230.5,219.5 Z"/></g>
<g><path style="opacity:1" fill="#f8fdfc" d="M 206.5,221.5 C 214.997,220.474 217.33,223.641 213.5,231C 205.775,234.066 202.608,231.566 204,223.5C 204.995,222.934 205.828,222.267 206.5,221.5 Z"/></g>
<g><path style="opacity:1" fill="#f8fdfd" d="M 259.5,221.5 C 267.993,220.471 270.327,223.637 266.5,231C 256.251,233.588 253.918,230.421 259.5,221.5 Z"/></g>
<g><path style="opacity:1" fill="#f8fdfc" d="M 359.5,221.5 C 367.997,220.474 370.33,223.641 366.5,231C 358.775,234.066 355.608,231.566 357,223.5C 357.995,222.934 358.828,222.267 359.5,221.5 Z"/></g>
<g><path style="opacity:1" fill="#ecf9f9" d="M 145.5,257.5 C 146.598,259.718 146.598,261.885 145.5,264C 146.756,264.417 147.423,265.25 147.5,266.5C 144.482,266.159 141.815,267.325 139.5,270C 118.527,279.265 105.027,272.765 99,250.5C 92.3558,246.356 86.8558,241.023 82.5,234.5C 83.7682,232.953 85.4348,231.953 87.5,231.5C 90.8257,235.658 94.659,239.325 99,242.5C 103.099,230.535 111.266,226.035 123.5,229C 134.066,233.61 137.233,241.11 133,251.5C 131.269,253.617 129.102,255.117 126.5,256C 119.704,256.703 113.037,256.37 106.5,255C 113.981,269.78 124.648,272.447 138.5,263C 140.864,261.158 143.197,259.325 145.5,257.5 Z"/></g>
<g><path style="opacity:1" fill="#18b4b1" d="M 112.5,234.5 C 119.018,233.123 124.185,235.123 128,240.5C 129.721,247.616 126.888,250.95 119.5,250.5C 114.925,250.253 110.592,249.086 106.5,247C 105.424,245.274 105.257,243.441 106,241.5C 107.694,238.642 109.861,236.309 112.5,234.5 Z"/></g>
<g><path style="opacity:1" fill="#29b8b5" d="M 309.5,244.5 C 311.153,248.87 313.487,253.036 316.5,257C 314.955,263.116 311.622,264.616 306.5,261.5C 303.191,254.926 304.191,249.259 309.5,244.5 Z"/></g>
<g><path style="opacity:1" fill="#21b6b3" d="M 382.5,244.5 C 383.5,244.5 384.5,244.5 385.5,244.5C 384.784,249.371 386.117,253.537 389.5,257C 387.589,263.844 384.089,265.011 379,260.5C 377.432,254.375 378.599,249.042 382.5,244.5 Z"/></g>
<g><path style="opacity:1" fill="#9adfde" d="M 288.5,271.5 C 289.477,274.287 289.81,277.287 289.5,280.5C 310.238,279.669 330.904,279.335 351.5,279.5C 357.115,280.289 362.782,280.789 368.5,281C 370.155,282.444 370.822,284.278 370.5,286.5C 343.128,284.715 315.794,284.382 288.5,285.5C 288.5,280.833 288.5,276.167 288.5,271.5 Z"/></g>
<g><path style="opacity:1" fill="#98dfde" d="M 271.5,281.5 C 272.234,282.708 272.567,284.041 272.5,285.5C 238.819,286.396 205.152,287.23 171.5,288C 180.781,286.645 190.115,285.645 199.5,285C 223.479,283.398 247.479,282.232 271.5,281.5 Z"/></g>
<g><path style="opacity:1" fill="#a1e2e1" d="M 280.5,281.5 C 281.5,281.5 282.5,281.5 283.5,281.5C 282.052,287.969 281.052,287.969 280.5,281.5 Z"/></g>
</svg>
